<?xml version="1.0" encoding="UTF-8"?>
<!DOCTYPE svg PUBLIC "-//W3C//DTD SVG 1.1//EN" "http://www.w3.org/Graphics/SVG/1.1/DTD/svg11.dtd">
<!-- Creator: CorelDRAW -->
<svg xmlns="http://www.w3.org/2000/svg" xml:space="preserve" width="1.70666in" height="1.70666in" version="1.1" style="shape-rendering:geometricPrecision; text-rendering:geometricPrecision; image-rendering:optimizeQuality; fill-rule:evenodd; clip-rule:evenodd"
viewBox="0 0 1707 1707"
 xmlns:xlink="http://www.w3.org/1999/xlink">
 <defs>
  <style type="text/css">
   <![CDATA[
    .fil0 {fill:black}
   ]]>
  </style>
 </defs>
 <g id="Layer_x0020_1">
  <metadata id="CorelCorpID_0Corel-Layer"/>
  <path class="fil0" d="M794 1662l-626 0c-17,0 -30,-13 -30,-30l0 -822c-45,-6 -85,-36 -125,-66 -9,-7 -14,-19 -11,-31 14,-58 56,-174 180,-301 151,-153 373,-276 662,-366 6,-2 12,-2 18,0 290,91 513,216 663,370 122,125 164,239 179,296 6,20 -7,29 -19,39 -36,27 -73,55 -116,59l0 822c0,17 -13,30 -30,30l-745 0zm-729 -953c83,60 100,53 184,-12 117,-90 156,-89 272,0 93,71 105,71 198,0 116,-89 155,-89 273,1 91,69 104,71 198,-1 117,-90 156,-88 271,0 87,66 101,71 180,12 -17,-55 -59,-149 -158,-251 -142,-146 -354,-264 -630,-352 -275,87 -486,204 -628,349 -101,103 -143,198 -160,254zm203 893l0 -342c0,-246 302,-369 475,-196 52,52 80,122 80,196l0 342 70 0c0,-49 -2,-464 2,-475 4,-12 15,-20 28,-20l496 0c17,0 30,13 30,30l0 465 60 0 0 -803c-65,-27 -134,-108 -183,-108 -65,0 -143,119 -236,119 -90,0 -172,-119 -237,-119 -61,0 -143,119 -233,119 -92,0 -171,-119 -236,-119 -50,0 -119,83 -186,110l0 801 70 0zm822 -995c-92,0 -175,-83 -237,-83 -59,0 -143,83 -233,83 -86,0 -164,-78 -225,-83 -40,-4 -34,-64 5,-60 79,8 155,83 221,83 69,0 153,-82 233,-82 83,0 161,83 236,83 65,0 135,-72 217,-80 39,-4 45,56 6,59 -66,7 -137,80 -223,80zm-87 -193c-57,0 -108,-53 -149,-53 -37,0 -90,53 -150,53 -59,0 -110,-53 -143,-53 -40,0 -40,-60 0,-60 56,0 104,53 143,53 41,0 93,-53 149,-53 61,0 113,53 150,53 40,0 79,-44 139,-53 39,-5 47,54 9,60 -48,7 -86,53 -148,53zm-7 1188l351 0 -176 -175 -175 175zm393 -41l0 -352 -176 176 176 176zm-42 -395l-352 0 176 176 176 -176zm-394 43l0 351 176 -175 -176 -176zm-625 393l436 0 0 -342c0,-119 -98,-217 -217,-217 -121,0 -219,98 -219,217l0 342z"/>
 </g>
</svg>
