<?xml version="1.0" encoding="UTF-8" standalone="no"?> <svg xmlns="http://www.w3.org/2000/svg" viewBox="0 0 512 512"><title>Taj_Mahal</title><g id="Taj_Mahal"><path d="M484.79,378.1V328.33H490V317.87h-5.21v-59.3H490V248.11h-5.21V196.35H490V185.88h-5.21V166.79a22.2,22.2,0,0,0,8.56-10.91,30.3,30.3,0,0,0-.8-23c-5.41-12.61-16.34-21-21.38-24.43V96.29H460.71v12.18c-5,3.39-16,11.82-21.39,24.43h0a30.39,30.39,0,0,0-.8,23,22.2,22.2,0,0,0,8.56,10.91v19.09h-5.56v10.47h5.56v51.76h-5.56v10.46h5.56v59.3h-5.56v10.46h5.56v48.44h-36V229.21H400.6V242.6H364.32a35.84,35.84,0,0,0,5.3-13.66A27,27,0,0,0,368,214c-3.06-7.17-10.14-16.38-26.25-22.77-3.67-25.66-19.47-42.57-33.06-52.62h3.27V128.1H291.23l-.39-.19a61.82,61.82,0,0,1-6.68-3.54A130.89,130.89,0,0,1,267,112a13.1,13.1,0,0,0-5.81-2.88V95.86H250.77v13.23A13.1,13.1,0,0,0,245,112a130.89,130.89,0,0,1-17.12,12.4,61.82,61.82,0,0,1-6.68,3.54l-.39.19H200.06v10.46h3.27c-13.59,10.05-29.39,27-33.06,52.62-16.11,6.39-23.19,15.6-26.25,22.77a27,27,0,0,0-1.64,15,35.84,35.84,0,0,0,5.3,13.66H111.4V229.21H100.94V376.77H69.1V328.33h5.57V317.87H69.1v-59.3h5.57V248.11H69.1V196.35h5.57V185.88H69.1V166.79a22.2,22.2,0,0,0,8.56-10.91,30.3,30.3,0,0,0-.8-23h0c-5.41-12.61-16.34-21-21.38-24.43V96.29H45v12.18c-5.05,3.39-16,11.82-21.38,24.43a30.3,30.3,0,0,0-.8,23,22.14,22.14,0,0,0,8.56,10.91v19.09H26.19v10.47H31.4v51.76H26.19v10.46H31.4v59.3H26.19v10.46H31.4v48.72a19.43,19.43,0,0,0-16.74,19.19v19.9H497.34v-19.9A19.45,19.45,0,0,0,484.79,378.1ZM448.93,137c4.13-9.6,12.72-16.47,17-19.46,4.3,3,12.85,9.8,17,19.46a20,20,0,0,1,.65,15.09,11.46,11.46,0,0,1-5.16,6.35h-25a11.46,11.46,0,0,1-5.16-6.35,20,20,0,0,1,.66-15.09Zm8.62,32.81h16.78v16H457.55Zm0,26.52h16.78v51.76H457.55Zm0,62.22h16.78v59.3H457.55Zm0,69.76h16.78v48.44H457.55ZM400.6,376.77H370V274.34H400.6Zm-120.21,0H231.61V320a10.4,10.4,0,0,1,2.08-6.24,31.72,31.72,0,0,1,15-11.12,23.76,23.76,0,0,0,7.34-4.07,23.76,23.76,0,0,0,7.34,4.07,31.72,31.72,0,0,1,15,11.12,10.4,10.4,0,0,1,2.08,6.24Zm6.32-69.22a42,42,0,0,0-19.93-14.77,12.34,12.34,0,0,1-5.7-3.84,5.27,5.27,0,0,0-5.07-4,5.17,5.17,0,0,0-5.07,3.93,11.86,11.86,0,0,1-5.73,3.95,42.07,42.07,0,0,0-19.92,14.77A20.75,20.75,0,0,0,221.15,320v56.75H196.77v-112H315.23v112H290.85V320A20.75,20.75,0,0,0,286.71,307.55ZM152.44,274.34h33.87V376.77H152.44Zm0-21.28h33.87v10.82H152.44Zm44.33-10.46v-1.2H315.23v12.87H196.77V242.6Zm10-44.51h125c0,.18,0,.37,0,.56s0,.12,0,.19c0,.7,0,1.37-.07,2.06-.05,1-.08,2-.2,3-.1.79-.26,1.55-.4,2.31s-.26,1.28-.41,1.9H181.22c-.15-.62-.29-1.26-.41-1.9s-.3-1.52-.4-2.31c-.12-1-.15-2-.2-3,0-.68-.08-1.36-.07-2,0-.07,0-.13,0-.19s0-.38,0-.56Zm3.83,20.47H326.1a29,29,0,0,1-17.27,11.68H203.17a29,29,0,0,1-17.27-11.68Zm148.91,45.32H325.69V253.06h33.87Zm-33.87,10.46h33.87V376.77H325.69Zm74.91-10.46H370V253.06H400.6Zm-42.24-45.82a16.2,16.2,0,0,1,.93,9.17,25.84,25.84,0,0,1-8.61,15.34h-25v-8.8a39.94,39.94,0,0,0,12.41-15,1.63,1.63,0,0,0,.09-.19h.17l1-2.62.19-.51.1-.29c0-.06,0-.12.05-.18a42.65,42.65,0,0,0,1.35-4.47c0-.19.1-.37.14-.55a43.38,43.38,0,0,0,.8-4.58c.05-.38.09-.77.12-1.15s.12-.91.15-1.37C352.56,208,356.71,214.19,358.36,218.06Zm-106.54-98.2a2.63,2.63,0,0,1,1.74-.64h4.88a2.63,2.63,0,0,1,1.74.64,132.65,132.65,0,0,0,10.61,8.24H241.21A132.65,132.65,0,0,0,251.82,119.86Zm-28.66,18.7h65.69c10.68,5.34,35.13,20.44,41.61,49l-.52-.13-.66.17H182.72l-.66-.17-.52.13C188,159,212.47,143.89,223.16,138.56Zm-69.52,79.5c1.65-3.87,5.8-10.09,16.13-15.22,0,.47.1.92.15,1.38s.07.75.12,1.13a43.31,43.31,0,0,0,.8,4.6c0,.17.09.34.14.52a42.78,42.78,0,0,0,1.34,4.48l.06.19.11.3.18.49,1,2.63h.17l.09.19a39.94,39.94,0,0,0,12.41,15v8.8h-25a26.13,26.13,0,0,1-8.63-15.34A16.2,16.2,0,0,1,153.64,218.06Zm-11.66,35v10.82H111.4V253.06ZM111.4,274.34H142V376.77H111.4ZM33.25,137c4.12-9.6,12.71-16.47,17-19.46,4.29,3,12.84,9.8,17,19.46a20,20,0,0,1,.65,15.09,11.42,11.42,0,0,1-5.16,6.35h-25a11.46,11.46,0,0,1-5.16-6.35A20,20,0,0,1,33.25,137Zm8.61,32.81H58.64v16H41.86Zm0,26.52H58.64v51.76H41.86Zm0,62.22H58.64v59.3H41.86Zm16.78,69.76v48.44H41.86V328.33Zm428.24,77.35H25.12v-9.44a9,9,0,0,1,9-9H477.87a9,9,0,0,1,9,9Z"/></g></svg>