<?xml version="1.0" encoding="iso-8859-1"?>
<!-- Generator: Adobe Illustrator 16.0.0, SVG Export Plug-In . SVG Version: 6.00 Build 0)  -->
<!DOCTYPE svg PUBLIC "-//W3C//DTD SVG 1.1//EN" "http://www.w3.org/Graphics/SVG/1.1/DTD/svg11.dtd">
<svg version="1.1" xmlns="http://www.w3.org/2000/svg" xmlns:xlink="http://www.w3.org/1999/xlink" x="0px" y="0px" width="512px"
	 height="512px" viewBox="0 0 512 512" style="enable-background:new 0 0 512 512;" xml:space="preserve">
<g id="D_-_515_x2C__Holiday_x2C__leisure_x2C__park_x2C__sign">
	<path d="M486,476H353.028l-33.271-92.419c12.656-5.139,24.558-11.758,35.488-19.645c7.697,20.329,33.873,25.928,49.248,10.556
		c15.417-15.418,9.653-41.587-10.547-49.261c15.079-20.903,25.526-45.354,29.836-71.843C443.526,262.232,466,247.717,466,226
		c0-21.723-22.475-36.23-42.217-27.389c-4.31-26.488-14.757-50.939-29.836-71.843c20.183-7.667,25.973-33.832,10.547-49.261
		c-15.31-15.307-41.52-9.864-49.247,10.556c-20.907-15.085-45.364-25.536-71.857-29.846C292.23,38.467,277.719,16,256,16
		c-21.721,0-36.231,22.476-27.389,42.217c-26.494,4.31-50.95,14.761-71.857,29.846c-7.649-20.212-33.79-26.011-49.246-10.556
		c-15.426,15.426-9.648,41.589,10.545,49.261c-15.079,20.904-25.526,45.355-29.835,71.843C68.471,189.768,46,204.281,46,226
		c0,21.722,22.476,36.232,42.218,27.389c4.309,26.489,14.756,50.94,29.835,71.843c-20.18,7.666-25.974,33.833-10.545,49.262
		c15.426,15.424,41.584,9.69,49.246-10.557c9.432,6.806,19.584,12.667,30.322,17.449L149.23,476H26c-5.522,0-10,4.478-10,10
		s4.478,10,10,10c28.842,0,366.855,0.002,460,0c5.523,0,10-4.478,10-10S491.523,476,486,476z M390.352,360.351
		c-3.906,3.906-10.235,3.909-14.143,0c-3.9-3.899-3.9-10.243,0-14.143c3.907-3.907,10.233-3.908,14.143-0.001
		C394.25,350.106,394.25,356.452,390.352,360.351z M436,216c5.515,0,10,4.486,10,10s-4.485,10-10,10c-5.514,0-10-4.486-10-10
		S430.486,216,436,216z M376.209,91.649c3.905-3.906,10.233-3.91,14.142,0c3.899,3.899,3.899,10.244,0.001,14.142
		c-3.907,3.908-10.234,3.909-14.143,0C372.31,101.892,372.31,95.548,376.209,91.649z M246,46c0-5.514,4.486-10,10-10
		c5.515,0,10,4.486,10,10s-4.485,10-10,10C250.486,56,246,51.514,246,46z M121.65,91.649c3.907-3.908,10.233-3.909,14.142,0
		c3.898,3.899,3.898,10.243,0,14.142c-3.907,3.908-10.233,3.909-14.142,0C117.751,101.892,117.751,95.548,121.65,91.649z M76,236
		c-5.514,0-10-4.486-10-10s4.486-10,10-10c5.515,0,10,4.486,10,10S81.515,236,76,236z M135.792,360.351
		c-3.907,3.907-10.234,3.909-14.142,0c-3.899-3.899-3.899-10.243,0-14.143c3.907-3.907,10.233-3.908,14.142,0
		C139.691,350.107,139.691,356.451,135.792,360.351z M106,226c0-82.71,67.29-150,150-150c82.711,0,150,67.29,150,150
		c0,62.549-38.488,116.271-93.022,138.749l-43.582-121.063C284.882,238.164,296,223.358,296,206c0-22.056-17.943-40-40-40
		c-22.056,0-40,17.944-40,40c0,17.212,10.929,31.919,26.211,37.549l-47.704,119.259C142.374,339.282,106,286.81,106,226z M266,406
		c0,5.514-4.485,10-10,10c-5.514,0-10-4.486-10-10s4.486-10,10-10C261.515,396,266,400.486,266,406z M213.256,369.785
		l42.252-105.629l38.506,106.959C267.617,378.034,239.56,377.618,213.256,369.785z M256,226c-11.027,0-20-8.972-20-20
		s8.973-20,20-20c11.028,0,20,8.972,20,20S267.028,226,256,226z M205.798,388.432c7.401,2.293,15.021,4.083,22.813,5.352
		C219.768,413.524,234.282,436,256,436s36.23-22.466,27.39-42.218c5.914-0.962,11.726-2.229,17.42-3.788L331.772,476H170.771
		L205.798,388.432z"/>
</g>
<g id="Layer_1">
</g>
</svg>
